<svg width="24" height="24" viewBox="0 0 24 24" fill="none" xmlns="http://www.w3.org/2000/svg">
<path d="M17 6C17.5523 6 18 6.44772 18 7L18 16C18 16.5523 17.5523 17 17 17C16.4477 17 16 16.5523 16 16L16 8L8 8C7.44772 8 7 7.55228 7 7C7 6.44772 7.44772 6 8 6L17 6ZM7.70711 17.7071C7.31658 18.0976 6.68342 18.0976 6.29289 17.7071C5.90237 17.3166 5.90237 16.6834 6.29289 16.2929L7.70711 17.7071ZM17 7L17.7071 7.70711L7.70711 17.7071L7 17L6.29289 16.2929L16.2929 6.29289L17 7Z" fill="currentColor"/>
</svg>
