<svg width="32" height="33" viewBox="0 0 32 33" fill="none"
     xmlns="http://www.w3.org/2000/svg">
    <path d="M4 13.3636H28M8.26667 25.3636H23.7333C25.2268 25.3636 25.9735 25.3636 26.544 25.0729C27.0457 24.8173 27.4537 24.4093 27.7094 23.9075C28 23.3371 28 22.5904 28 21.0969V10.9636C28 9.47009 28 8.72336 27.7094 8.15292C27.4537 7.65116 27.0457 7.24321 26.544 6.98755C25.9735 6.6969 25.2268 6.6969 23.7333 6.6969H8.26667C6.77319 6.6969 6.02646 6.6969 5.45603 6.98755C4.95426 7.24321 4.54631 7.65116 4.29065 8.15292C4 8.72336 4 9.47009 4 10.9636V21.0969C4 22.5904 4 23.3371 4.29065 23.9075C4.54631 24.4093 4.95426 24.8173 5.45603 25.0729C6.02646 25.3636 6.77319 25.3636 8.26667 25.3636Z"
          stroke="currentColor" stroke-width="3"/>
</svg>